<svg width="32" height="32" viewBox="0 0 32 32" fill="none" xmlns="http://www.w3.org/2000/svg">
  <defs>
    <linearGradient id="orangeGradient" x1="0%" y1="0%" x2="100%" y2="100%">
      <stop offset="0%" style="stop-color:#f97316;stop-opacity:1" />
      <stop offset="100%" style="stop-color:#ea580c;stop-opacity:1" />
    </linearGradient>
  </defs>
  
  <!-- Background circle with gradient -->
  <circle cx="16" cy="16" r="15" fill="url(#orangeGradient)" stroke="#fff" stroke-width="1"/>
  
  <!-- Network icon -->
  <g transform="translate(8, 8)">
    <path d="M8 2C4.69 2 2 4.69 2 8s2.69 6 6 6 6-2.69 6-6-2.69-6-6-6zm0 10c-2.21 0-4-1.79-4-4s1.79-4 4-4 4 1.79 4 4-1.79 4-4 4z" fill="white"/>
    <circle cx="8" cy="8" r="1.5" fill="white"/>
    <circle cx="4" cy="8" r="1" fill="white"/>
    <circle cx="12" cy="8" r="1" fill="white"/>
    <circle cx="8" cy="4" r="1" fill="white"/>
    <circle cx="8" cy="12" r="1" fill="white"/>
  </g>
  
  <!-- Green dot indicator -->
  <circle cx="22" cy="10" r="3" fill="#22c55e" stroke="#fff" stroke-width="1"/>
</svg> 