<svg width="1200" height="630" viewBox="0 0 1200 630" fill="none" xmlns="http://www.w3.org/2000/svg">
  <defs>
    <linearGradient id="bgGradient" x1="0%" y1="0%" x2="100%" y2="100%">
      <stop offset="0%" style="stop-color:#fef3c7;stop-opacity:1" />
      <stop offset="100%" style="stop-color:#fed7aa;stop-opacity:1" />
    </linearGradient>
    <linearGradient id="logoGradient" x1="0%" y1="0%" x2="100%" y2="100%">
      <stop offset="0%" style="stop-color:#f97316;stop-opacity:1" />
      <stop offset="100%" style="stop-color:#ea580c;stop-opacity:1" />
    </linearGradient>
  </defs>
  
  <!-- Background -->
  <rect width="1200" height="630" fill="url(#bgGradient)"/>
  
  <!-- Decorative elements -->
  <circle cx="100" cy="100" r="50" fill="url(#logoGradient)" opacity="0.1"/>
  <circle cx="1100" cy="530" r="80" fill="url(#logoGradient)" opacity="0.1"/>
  <circle cx="200" cy="500" r="30" fill="url(#logoGradient)" opacity="0.1"/>
  
  <!-- Logo -->
  <g transform="translate(100, 165)">
    <circle cx="60" cy="60" r="60" fill="url(#logoGradient)" stroke="#fff" stroke-width="3"/>
    <g transform="translate(30, 30)">
      <path d="M30 6C15.64 6 4 17.64 4 32s11.64 26 26 26 26-11.64 26-26S44.36 6 30 6zm0 44c-9.94 0-18-8.06-18-18s8.06-18 18-18 18 8.06 18 18-8.06 18-18 18z" fill="white"/>
      <circle cx="30" cy="32" r="6" fill="white"/>
      <circle cx="15" cy="32" r="3" fill="white"/>
      <circle cx="45" cy="32" r="3" fill="white"/>
      <circle cx="30" cy="17" r="3" fill="white"/>
      <circle cx="30" cy="47" r="3" fill="white"/>
    </g>
    <circle cx="90" cy="30" r="12" fill="#22c55e" stroke="#fff" stroke-width="2"/>
  </g>
  
  <!-- Text -->
  <text x="200" y="200" font-family="Inter, system-ui, sans-serif" font-size="72" font-weight="bold" fill="#1f2937">
    SkillConnect
  </text>
  <text x="200" y="280" font-family="Inter, system-ui, sans-serif" font-size="36" font-weight="500" fill="#6b7280">
    Kenya Jobs Marketplace
  </text>
  <text x="200" y="340" font-family="Inter, system-ui, sans-serif" font-size="24" fill="#9ca3af">
    Connect with verified employers and skilled job seekers
  </text>
  
  <!-- Bottom section -->
  <rect x="0" y="500" width="1200" height="130" fill="url(#logoGradient)" opacity="0.1"/>
  <text x="100" y="560" font-family="Inter, system-ui, sans-serif" font-size="20" font-weight="600" fill="#ea580c">
    Find Jobs • Post Jobs • Grow Your Career
  </text>
  <text x="100" y="590" font-family="Inter, system-ui, sans-serif" font-size="16" fill="#ea580c">
    skillconnect.ke
  </text>
</svg> 